<svg xmlns="http://www.w3.org/2000/svg" width="348.48" height="181.847" viewBox="0 0 348.48 181.847"><defs><style>.a{fill:#fff;}.b{fill:#1fb5d0;}</style></defs><g transform="translate(-1373.483 -1239.57)"><g transform="translate(1373.483 1378.62)"><path class="a" d="M1408.2,1361.206l-.049.245c-1.233-.1-2.711-.147-3.945-.147a39.517,39.517,0,0,0-4.141.2l-.1-.3c1.38-.494,1.774-1.035,1.183-2.268-.543-1.283-1.873-4.191-3.5-7.693h-15.976c-1.282,2.91-2.416,5.473-3.106,7.15-.64,1.626-.2,2.317,1.233,2.811l-.049.3a23.643,23.643,0,0,0-3.156-.2,29.222,29.222,0,0,0-3.057.147l-.05-.245a4.422,4.422,0,0,0,2.663-2.417c3.4-6.8,10.157-20.905,14.3-30.323h.688c3.748,8.282,11.242,24.209,14.152,29.929A5.652,5.652,0,0,0,1408.2,1361.206Zm-11.242-11.488c-2.613-5.672-5.717-12.328-7.445-15.926-1.873,3.992-4.783,10.4-7.2,15.926Z" transform="translate(-1373.483 -1328.072)"/><path class="a" d="M1413.009,1353.433a9.847,9.847,0,0,1-7,3.106c-5.078,0-9.612-3.4-9.612-9.22,0-5.671,4.486-9.172,9.761-9.172,2.811,0,4.932.789,6.262,2.121l.248,2.958-.248.2a6.3,6.3,0,0,0-5.917-4.143c-3.994,0-6.607,3.107-6.607,7.545,0,4.928,3.007,7.986,7.1,7.986a8.821,8.821,0,0,0,6.015-1.922Z" transform="translate(-1360.456 -1322.568)"/><path class="a" d="M1427.921,1354.862a11.938,11.938,0,0,0-4.88,1.677l-.2-.05a20.12,20.12,0,0,0,.246-2.908,8.556,8.556,0,0,1-6.213,2.908c-4.438,0-7.347-2.121-7.347-5.818,0-3.6,4.389-5.769,9.418-5.769a17.279,17.279,0,0,1,4.143.444v-1.675c0-2.96-2.07-4.438-4.684-4.438a7.937,7.937,0,0,0-6.9,3.846l-.246-.149v-2.169a10.41,10.41,0,0,1,7.2-2.613c4.833,0,7.741,1.972,7.741,5.523,0,5.129.05,7.642.1,8.924a1.947,1.947,0,0,0,1.626,2.072Zm-8.776-8.925c-3.7,0-6.214,1.627-6.214,4.734a4.043,4.043,0,0,0,4.389,4.389,7.386,7.386,0,0,0,5.721-2.861c.049-1.132.049-3.2.049-5.818A13.653,13.653,0,0,0,1419.145,1345.937Z" transform="translate(-1352.987 -1322.568)"/><path class="a" d="M1443.908,1360.51a11.726,11.726,0,0,0-4.831,1.677l-.2-.05.149-2.069a10.524,10.524,0,0,1-5.967,2.069,8.817,8.817,0,0,1-9.17-9.17c0-5.671,4.339-9.222,9.664-9.222a10.509,10.509,0,0,1,5.572,1.628v-.394c0-7.939-.05-11.144-.1-12.87a1.89,1.89,0,0,0-1.627-2.02v-.2a12.986,12.986,0,0,0,4.831-1.675l.2.049c-.2,2.761-.246,7.791-.246,17.01,0,7.495.049,11.686.1,12.968a2.027,2.027,0,0,0,1.627,2.072Zm-9.812-15.63c-3.943,0-6.656,3.106-6.656,8.086,0,4.339,2.514,7.741,6.558,7.741a7.822,7.822,0,0,0,5.029-1.776c.049-1.578.1-4.783.1-12.474A7.957,7.957,0,0,0,1434.1,1344.88Z" transform="translate(-1344.82 -1328.215)"/><path class="a" d="M1443.009,1344.359a13.762,13.762,0,0,0-.3,2.96c0,4.536,3.106,7.493,7.051,7.493a8.824,8.824,0,0,0,6.016-1.922v.543a9.851,9.851,0,0,1-7,3.106c-5.078,0-9.614-3.451-9.614-9.22,0-5.671,4.289-9.172,9.614-9.172,4.635,0,7.989,2.515,7.989,6.212Zm9.813-1.429c0-2.169-1.332-3.649-4.044-3.649a5.418,5.418,0,0,0-5.572,4.093Z" transform="translate(-1336.136 -1322.568)"/><path class="a" d="M1485.631,1355.964a32.78,32.78,0,0,0-6.212,0l-.05-.2a2.111,2.111,0,0,0,1.528-2.071c.05-1.481.1-4.684.1-7.4,0-4.635-.938-6.854-4.34-6.854-3.007,0-5.62,2.119-5.867,6.113v1.332c0,2.121.049,5.324.1,6.8a2.078,2.078,0,0,0,1.481,2.071l-.048.2a32.8,32.8,0,0,0-6.213,0l-.05-.2a2.116,2.116,0,0,0,1.53-2.071c.049-1.481.1-4.684.1-7.4,0-4.98-1.429-6.854-4.337-6.854a6.126,6.126,0,0,0-5.868,4.88v2.219c0,2.318.049,5.669.1,7.15a2.074,2.074,0,0,0,1.478,2.071l-.048.2a32.8,32.8,0,0,0-6.213,0l-.048-.2a2.061,2.061,0,0,0,1.529-2.071c.049-1.481.1-5.029.1-7.15,0-1.281-.049-3.206-.1-4.535a1.892,1.892,0,0,0-1.626-2.022v-.2a13.537,13.537,0,0,0,4.88-1.679l.2.05c-.148,2.072-.247,3.6-.247,4.191a6.919,6.919,0,0,1,6.411-4.191c3.943,0,5.768,1.923,6.557,4.833a6.69,6.69,0,0,1,6.754-4.833c5.128,0,6.9,3.255,6.9,8.136,0,2.712.05,5.915.1,7.4a2.074,2.074,0,0,0,1.478,2.071Z" transform="translate(-1328.469 -1322.586)"/><path class="a" d="M1494.177,1338.691a3.609,3.609,0,0,0-2.119,2.022c-1.035,1.972-2.96,5.966-4.34,8.925-2.662,5.669-6.113,13.212-7.148,15.529-.494-.049-1.085-.1-1.677-.1-.642,0-1.184.049-1.725.1l-.1-.345c3.056-1.972,4.98-5.473,6.458-8.678-.935-2.218-3.106-6.853-4.634-10.157-.888-1.874-1.824-3.748-2.417-4.932a5.076,5.076,0,0,0-2.367-2.414l.052-.149c.737.1,2.562.149,3.35.149s2.516-.049,3.2-.149l.052.149a1.435,1.435,0,0,0-.938,2.071c.641,1.528,1.282,2.957,2.071,4.634,1.233,2.714,2.17,4.634,3.4,7.247,1.085-2.315,1.923-4.19,2.712-5.964,1.233-2.761,2.07-4.734,2.515-5.868.494-1.183.2-1.677-.888-2.071l.05-.2a16.385,16.385,0,0,0,2.317.149,15.082,15.082,0,0,0,2.119-.149Z" transform="translate(-1316.266 -1322.371)"/></g><g transform="translate(1568.318 1403.525)"><rect class="a" width="1.569" height="153.641" transform="translate(0 1.569) rotate(-89.83)"/></g><g transform="translate(1380.225 1288.801)"><path class="a" d="M1394.549,1310.571c-1.011,0-2.02,0-3.131-.1,0,11.11.1,20.6.2,23.735.1,2.425,1.112,3.233,3.132,4.141l-.1.505c-2.425-.2-5.859-.3-8.485-.3-2.526,0-5.759.1-8.283.3l-.1-.505c2.122-1.009,3.031-1.716,3.131-4.141.1-3.231.2-13.129.2-28.785,0-15.758-.1-25.554-.2-28.787-.1-2.425-1.211-3.536-3.131-3.838v-.5c4.444-.2,10.908-.3,15.656-.3,16.362,0,29.7,6.464,29.7,18.282C1423.133,1303.9,1411.82,1310.571,1394.549,1310.571Zm-2.93-35.049c-.1,4.141-.2,17.371-.2,31.008,1.111.1,2.221.1,3.232.1,12.12,0,17.17-6.767,17.17-16.362C1411.82,1280.471,1405.862,1275.522,1391.619,1275.522Z" transform="translate(-1377.781 -1270.369)"/><path class="a" d="M1434.254,1302.349l-.4.1a7.641,7.641,0,0,0-7.07-4.849c-3.939,0-6.061,1.515-7.777,4.646v5.857c0,6.061.1,12.626.2,15.151.1,2.122,1.009,3.333,3.131,4.242l-.1.4c-2.424-.2-4.949-.3-7.473-.3-2.628,0-4.951.1-7.376.3l-.1-.4a4.218,4.218,0,0,0,3.131-4.242c.1-2.525.2-9.09.2-14.14,0-3.94-.1-7.979-.2-9.8a3.952,3.952,0,0,0-3.333-4.143v-.4a33.662,33.662,0,0,0,12.02-3.536l.4.2c-.3,3.534-.4,5.455-.4,7.575,2.223-4.646,5.757-7.575,10-7.575,1.818,0,4.241.5,5.151,1.92Z" transform="translate(-1361.12 -1259.421)"/><path class="a" d="M1447.109,1328.943c-12.424,0-20.708-7.474-20.708-18.786s8.284-18.789,20.708-18.789,20.707,7.475,20.707,18.789S1459.532,1328.943,1447.109,1328.943Zm0-34.646c-7.07,0-10.708,5.456-10.708,15.86,0,10.5,3.638,15.857,10.708,15.857,6.969,0,10.707-5.355,10.707-15.857C1457.816,1299.752,1454.078,1294.3,1447.109,1294.3Z" transform="translate(-1350.135 -1259.348)"/><path class="a" d="M1503.89,1282.491c-6.565-5.859-14.444-7.07-23.736-7.07-2.223,0-4.648,0-7.071.2-.1,4.039-.2,14.037-.2,27.068,20-.2,22.524-1.211,23.634-5.354l.505.1a49.886,49.886,0,0,0-.4,6.969,48.1,48.1,0,0,0,.4,6.971l-.505.1c-1.111-4.446-3.635-5.053-23.634-5.255,0,14.85.1,24.748.2,27.979.1,2.425,1.111,3.233,3.132,4.141l-.1.505c-2.423-.2-5.857-.3-8.384-.3a76.052,76.052,0,0,0-8.383.4l-.1-.607c2.121-1.009,3.031-1.716,3.131-4.141.1-3.231.2-13.129.2-28.785,0-15.758-.1-25.554-.2-28.787-.1-2.425-1.01-3.132-3.131-4.14l.1-.506c2.526.2,5.757.3,12.424.3h29.6a60.716,60.716,0,0,0,3.231,9.7Z" transform="translate(-1331.459 -1270.369)"/><path class="a" d="M1506.208,1339.438q-3.635-.3-7.575-.3c-2.527,0-4.848.1-7.274.3l-.1-.4a4.22,4.22,0,0,0,3.131-4.242c.1-2.525.2-9.09.2-28.785,0-15.354-.1-23.434-.2-26.969a3.954,3.954,0,0,0-3.333-4.141v-.4a33.6,33.6,0,0,0,12.02-3.536l.4.2c-.4,5.556-.507,16.464-.507,34.849,0,19.7.1,26.26.2,28.785.1,2.122,1.01,3.333,3.131,4.242Z" transform="translate(-1313.37 -1270.955)"/><path class="a" d="M1519.8,1334.86c-2.425-.2-4.951-.3-7.476-.3-2.626,0-4.949.1-7.372.3l-.1-.4a4.221,4.221,0,0,0,3.133-4.242c.1-2.525.2-9.09.2-13.027,0-5.053-.1-9.092-.2-10.91a3.954,3.954,0,0,0-3.333-4.143v-.4a33.666,33.666,0,0,0,12.019-3.536l.4.2c-.4,5.556-.5,11.415-.5,16.665,0,6.061.1,12.626.2,15.151.1,2.122,1.012,3.333,3.131,4.242Zm-8.082-45.048a5.4,5.4,0,1,1,5.454-5.354A5.41,5.41,0,0,1,1511.716,1289.813Z" transform="translate(-1305.643 -1266.377)"/><path class="a" d="M1557.627,1337.308c0,9.09-12.626,12.221-23.838,12.221-9.192,0-15.556-2.728-15.556-7.373,0-5.456,7.779-8.284,14.95-8.889-6.061,0-8.685-1.514-8.685-4.242,0-2.224,2.119-5.051,6.563-7.979-6.766-1.716-11.716-6.162-11.716-13.133,0-8.888,8.081-13.837,17.677-13.837a27.354,27.354,0,0,1,5.857.606l4.344-8.078,6.869,1.816v.4l-9.09,6.464c5.757,2.02,9.7,6.362,9.7,12.624,0,8.889-8.08,13.738-17.675,13.738a18.045,18.045,0,0,1-2.325-.1c-2.929,2.221-3.735,3.333-3.735,4.243,0,1.614,3.332,1.816,7.068,1.816C1547.83,1327.611,1557.627,1328.42,1557.627,1337.308Zm-6.464,2.121c0-3.937-4.343-5.556-10.91-5.556a34.638,34.638,0,0,0-3.839.2c-5.452.505-10.3,3.131-10.3,6.464,0,2.828,4.242,5.151,12.019,5.151C1544.8,1345.691,1551.163,1343.772,1551.163,1339.429Zm-14.141-20.806c5.051,0,9.19-3.638,9.19-10.709,0-7.172-4.139-10.806-9.19-10.806s-9.192,3.634-9.192,10.806C1527.83,1314.985,1531.971,1318.623,1537.022,1318.623Z" transform="translate(-1297.917 -1262.057)"/><path class="a" d="M1589.294,1339.438c-2.423-.2-4.949-.3-7.474-.3-2.626,0-4.949.1-7.373.3l-.1-.4a4.218,4.218,0,0,0,3.131-4.242c.1-2.525.2-8.99.2-15.151,0-10.3-2.828-13.332-7.98-13.332-5.354,0-10,3.837-11.211,10.2,0,9.192.1,15.757.2,18.282.1,2.122,1.01,3.333,3.131,4.242l-.1.4q-3.638-.3-7.578-.3c-2.524,0-4.847.1-7.271.3l-.1-.4a4.218,4.218,0,0,0,3.131-4.242c.1-2.525.2-9.09.2-28.785,0-15.354-.1-23.434-.2-26.969a3.952,3.952,0,0,0-3.333-4.141v-.4a33.592,33.592,0,0,0,12.019-3.536l.4.2c-.4,5.556-.5,16.464-.5,34.849v5.556c1.918-4.85,6.765-8.587,13.332-8.587,11.01,0,14.242,6.665,14.242,16.665,0,6.061.1,12.626.2,15.151.1,2.122,1.012,3.333,3.131,4.242Z" transform="translate(-1281.806 -1270.955)"/><path class="a" d="M1605.18,1325.406c-2.627,4.344-6.364,6.971-12.929,6.971-6.768,0-10-3.536-9.8-10,.2-6.262.3-12.221.3-23.131h-7.071l-.2-.91c7.274-1.211,13.638-6.566,15.153-12.828l.806.1c-.1,2.122-.3,6.971-.3,8.486v2.02h11.413v3.131h-11.413c0,12.019.1,19.493.2,23.131.1,4.947,2.02,6.565,5.454,6.565,2.626,0,4.951-1.213,7.777-4.041Z" transform="translate(-1265.364 -1262.68)"/></g><g transform="translate(1442.198 1239.57)"><path class="b" d="M1429.979,1270.475c1.711-3.286,5.94-13.81,8.844-20.943a33.7,33.7,0,0,0,2.064-8.507c30.362-.486,60.494-.971,90.707-1.456-1.464,6.467-6.869,10.111-15.533,10.287-16.566.334-33.137.475-49.706.709-5.26.075-10.518.19-16.391.3-3.977,19.1-14.461,33.664-32.676,41.87" transform="translate(-1417.289 -1239.57)"/><g transform="translate(34.235 15.849)"><path class="b" d="M1489.693,1249.674c-3.283,5.956-7.211,9.558-12.808,9.834-12.541.617-25.11.653-37.771.927,1.795-10.056,1.895-10.193,10.712-10.315C1462.769,1249.938,1475.715,1249.826,1489.693,1249.674Z" transform="translate(-1439.114 -1249.674)"/></g><g transform="translate(25.371 31.482)"><path class="b" d="M1433.463,1269.377c2.7-7.875,8.02-10.516,15.81-9.545,3.951.492,8.034-.071,12.168-.16C1458.886,1268.721,1449.791,1271.8,1433.463,1269.377Z" transform="translate(-1433.463 -1259.64)"/></g></g></g></svg>